<svg width="0" height="0" class="hidden">
  <symbol version="1.1" id="angry" xmlns="http://www.w3.org/2000/svg" xmlns:xlink="http://www.w3.org/1999/xlink" x="0px" y="0px" xml:space="preserve" viewBox="0 0 512.001 512.001">
    <circle cx="256.004" cy="256.004" r="246.855"></circle>
    <g>
      <path d="M126.306,385.694c-88.801-88.802-95.798-228.426-20.998-325.241
		c-8.286,6.401-16.258,13.399-23.858,20.999c-96.401,96.401-96.401,252.698,0,349.099s252.698,96.401,349.099,0
		c7.599-7.599,14.597-15.573,20.999-23.858C354.733,481.492,215.108,474.495,126.306,385.694z"></path>
      <path d="M220.789,326.378c-2.659,0-5.296-1.153-7.104-3.377c-3.188-3.92-2.596-9.684,1.325-12.872
		c11.647-9.473,26.436-14.69,41.644-14.69c14.5,0,28.75,4.799,40.126,13.512c4.011,3.073,4.772,8.816,1.701,12.828
		c-3.073,4.012-8.815,4.772-12.828,1.701c-8.2-6.281-18.499-9.74-28.999-9.74c-11.014,0-21.703,3.76-30.097,10.587
		C224.86,325.705,222.818,326.378,220.789,326.378z"></path>
    </g>
    <path d="M256.001,0C114.841,0,0,114.841,0,256.001s114.841,256.001,256.001,256.001S512.001,397.16,512.001,256.001
	S397.16,0,256.001,0z M256.001,493.701c-131.069,0-237.702-106.631-237.702-237.7S124.932,18.299,256.001,18.299
	s237.702,106.632,237.702,237.702S387.068,493.701,256.001,493.701z"></path>
    <path d="M180.577,229.78c0-3.914-0.676-7.672-1.903-11.172c3.656,0.376,7.477,0.589,11.481,0.589
	c10.598,0,22.412-1.442,35.442-4.985c4.875-1.326,7.753-6.353,6.428-11.231c-1.327-4.877-6.362-7.751-11.231-6.428
	c-64.932,17.664-93.048-23.646-94.229-25.438c-2.746-4.219-8.386-5.43-12.621-2.702c-4.249,2.735-5.475,8.397-2.74,12.646
	c0.305,0.476,6.439,9.849,19.049,19.163c-10.357,5.796-17.378,16.869-17.378,29.558c0,18.666,15.186,33.852,33.852,33.852
	S180.577,248.446,180.577,229.78z"></path>
    <path d="M260.322,257.016c-45.315,0-85.656,28.193-100.385,70.154c-1.673,4.768,0.836,9.989,5.603,11.664
	c4.772,1.675,9.99-0.834,11.665-5.603c12.159-34.641,45.562-57.915,83.118-57.915c37.548,0,70.947,23.274,83.106,57.915
	c1.322,3.766,4.857,6.123,8.634,6.122c1.005,0,2.028-0.167,3.03-0.518c4.768-1.674,7.276-6.895,5.603-11.664
	C345.965,285.208,305.628,257.016,260.322,257.016z"></path>
    <path d="M398.086,168.459c-4.219-2.749-9.879-1.551-12.647,2.655c-1.164,1.768-29.28,43.107-94.229,25.441
	c-4.871-1.325-9.903,1.551-11.231,6.428c-1.326,4.876,1.552,9.903,6.428,11.231c13.033,3.544,24.843,4.985,35.442,4.985
	c4.003,0,7.823-0.213,11.48-0.589c-1.227,3.5-1.903,7.257-1.903,11.172c0,18.666,15.186,33.852,33.852,33.852
	s33.852-15.186,33.852-33.852c0-12.689-7.021-23.762-17.378-29.558c12.611-9.314,18.744-18.687,19.049-19.163
	C403.524,176.825,402.304,171.206,398.086,168.459z"></path>
    <g>
      <circle cx="155.969" cy="225.835" r="9.15"></circle>
      <circle cx="374.338" cy="225.835" r="9.15"></circle>
    </g>
  </symbol>
  <symbol xmlnsRdf="http://www.w3.org/1999/02/22-rdf-syntax-ns#" xmlns="http://www.w3.org/2000/svg" version="1.1" xmlnsCc="http://creativecommons.org/ns#" xmlnsDc="http://purl.org/dc/elements/1.1/" viewBox="0 0 24 24" id="heart">
    <g transform="translate(0 -1028.4)">
      <path d="m7 1031.4c-1.5355 0-3.0784 0.5-4.25 1.7-2.3431 2.4-2.2788 6.1 0 8.5l9.25 9.8 9.25-9.8c2.279-2.4 2.343-6.1 0-8.5-2.343-2.3-6.157-2.3-8.5 0l-0.75 0.8-0.75-0.8c-1.172-1.2-2.7145-1.7-4.25-1.7z" fill="#e74c3c"></path>
    </g>
  </symbol>
  <symbol xmlns="http://www.w3.org/2000/svg" xmlns:xlink="http://www.w3.org/1999/xlink" aria-hidden="true" role="img" preserveAspectRatio="xMidYMid meet" viewBox="0 0 128 128" id="thumbs-up">
    <radialGradient id="IconifyId17ecdb2904d178eab21181" cx="51.77" cy="31.401" r="87.039" gradientTransform="matrix(-.00218 1 -.7873 -.00172 76.604 -20.315)" gradientUnits="userSpaceOnUse">
      <stop stop-color="#FFCA28" offset=".6"></stop>
      <stop stop-color="#FFB300" offset="1"></stop>
    </radialGradient>
    <path d="M85.52 121.67c-8.63-.07-21.58-.41-34.32-1.61c-8.77-.83-17.83-2.14-24.71-6.04c-1.94-1.1-4.06-1.37-5.94-1.6c-.8-.1-1.55-.19-2.19-.34c-4.88-1.15-8.29-5.37-8.31-10.26l-.07-32.75c-.01-4.53 3.22-8.32 7.69-9.02c.08-.01.15-.03.23-.05c.55-.18 13.69-4.46 23.59-12.2c4.66-3.64 8.65-9.25 10.68-15c2.02-5.73 2.01-11.98 2-17c0-3.24-.01-7.27.87-7.86c2.14-1.41 4.5-2.13 7.01-2.13c7.72 0 15.6 7.05 15.91 14.23c.22 4.98-1.45 10.86-3.06 16.54c-1.9 6.73-3.55 12.54-2.06 16.49c.22.59.78.97 1.4.97l7.29-.25h.07c8.16 0 14.8 6.64 14.81 14.79l.05 42.21c0 2.91-1.12 5.64-3.18 7.69a10.81 10.81 0 0 1-7.69 3.19h-.07z" fill="url(#IconifyId17ecdb2904d178eab21181)"></path>
    <path d="M62.05 7.31c6.86 0 14.13 6.46 14.41 12.79c.21 4.74-1.42 10.5-3 16.07c-1.98 6.98-3.68 13.01-2.02 17.42a2.998 2.998 0 0 0 2.81 1.94h.11l7.2-.25h.06c7.33 0 13.3 5.96 13.31 13.3l.05 42.21c0 2.5-.97 4.86-2.74 6.63s-4.12 2.75-6.63 2.75h-.08c-8.6-.07-21.51-.41-34.19-1.6c-8.6-.81-17.48-2.09-24.11-5.85c-2.2-1.25-4.58-1.54-6.49-1.78c-.76-.09-1.47-.18-2.03-.32c-4.2-.99-7.14-4.61-7.15-8.8l-.08-32.75c-.01-3.78 2.69-6.95 6.42-7.53c.15-.02.31-.06.45-.11c.56-.18 13.94-4.55 24.05-12.45c4.87-3.81 9.05-9.67 11.17-15.68c2.11-5.97 2.1-12.36 2.09-17.5c0-2.44-.01-5.74.41-6.74a10.97 10.97 0 0 1 5.98-1.75m0-3c-2.65 0-5.33.72-7.84 2.38c-3.24 2.14.27 15.02-3.46 25.6c-2.24 6.35-6.51 11.45-10.19 14.32c-9.8 7.66-23.12 11.96-23.12 11.96c-5.17.81-8.97 5.27-8.96 10.51l.08 32.75c.02 5.64 3.97 10.41 9.46 11.71c2.22.52 5.25.38 7.73 1.79c6.63 3.76 15.13 5.26 25.31 6.22c12.6 1.19 25.4 1.54 34.45 1.62h.1c6.83 0 12.38-5.54 12.37-12.38l-.05-42.21c-.01-9.01-7.32-16.29-16.31-16.29h-.12l-7.24.25c-2.5-6.64 5.69-21.58 5.21-32.57c-.35-7.81-8.68-15.66-17.42-15.66z" fill="#EDA600"></path>
    <path d="M66.12 62.5c1.88 5 1.9 12.8 0 17.62c-2.75 6.96-9.48 13.05-17.25 14.12c-1.9.26-.77 2.01 1.12 1.75c8.41-1.16 19.79-4.57 22.75-12.12c8.12-20.75-1.38-31.62-5.62-28.38c-2.04 1.58-2.06 4.18-1 7.01z" fill="#EDA600"></path>
    <radialGradient id="IconifyId17ecdb2904d178eab21182" cx="2459.4" cy="-319.18" r="20.331" gradientTransform="matrix(-1.3883 .0794 -.0374 -.6794 3505.4 -353.39)" gradientUnits="userSpaceOnUse">
      <stop stop-color="#FFCA28" offset=".599"></stop>
      <stop stop-color="#FFB300" offset="1"></stop>
    </radialGradient>
    <path d="M86.28 69.92c-8.36 0-18.41-1.55-18.84-8.96c-.12-2.12.52-3.9 1.96-5.43c3.79-4.02 13.1-6.23 26.22-6.23c4.76 0 8.23.31 8.27.31s.09.01.13.01h.09c.14-.01.27-.01.41-.01c4.25 0 7.8 3.83 8.09 8.72c.3 5.06-3.03 9.38-7.42 9.63c-.07 0-.15.01-.22.03c-.09.01-9.35 1.93-18.69 1.93z" fill="url(#IconifyId17ecdb2904d178eab21182)"></path>
    <path d="M95.63 50.8c4.68 0 8.1.3 8.13.3c.09.01.18.01.27.01c.06 0 .12 0 .17-.01c.11-.01.22-.01.32-.01c3.45 0 6.35 3.21 6.59 7.3c.12 2.12-.48 4.13-1.69 5.67c-1.13 1.44-2.67 2.28-4.32 2.38c-.15.01-.3.03-.44.06c-.09.02-9.22 1.91-18.38 1.91c-5.32 0-9.54-.62-12.53-1.84c-4.11-1.68-4.72-4.06-4.81-5.7c-.1-1.71.4-3.08 1.56-4.32c3.45-3.65 12.61-5.75 25.13-5.75m0-3c-11.42 0-30.36 1.73-29.69 13.25c.49 8.32 10.53 10.37 20.34 10.37c9.61 0 19-1.97 19-1.97c5.22-.31 9.18-5.33 8.83-11.22c-.33-5.7-4.57-10.13-9.58-10.13c-.17 0-.33 0-.5.01c0 0-3.51-.31-8.4-.31z" fill="#EDA600"></path>
    <radialGradient id="IconifyId17ecdb2904d178eab21183" cx="2557.2" cy="-508.52" r="18.753" gradientTransform="matrix(-1.6967 -.00188 .00291 -.6804 4447.7 -263.06)" gradientUnits="userSpaceOnUse">
      <stop stop-color="#FFCA28" offset=".599"></stop>
      <stop stop-color="#FFB300" offset="1"></stop>
    </radialGradient>
    <path d="M92.55 88.95c-10.91 0-23.91-1.83-23.91-10.57s13-10.57 23.91-10.57c9.25 0 17.68 1.35 17.76 1.36s.16.02.24.02c4.41 0 7.48 4.66 7.48 8.84c0 4.41-3.27 9.53-7.48 9.53c-.08 0-.16.01-.24.02c-.09.02-8.52 1.37-17.76 1.37z" fill="url(#IconifyId17ecdb2904d178eab21183)"></path>
    <path d="M92.55 69.32c9.12 0 17.44 1.33 17.52 1.34c.16.03.32.04.48.04c3.42 0 5.98 3.88 5.98 7.34c0 3.61-2.76 8.03-5.98 8.03c-.16 0-.32.01-.48.04c-.08.01-8.41 1.34-17.52 1.34c-6.83 0-12.26-.72-16.15-2.15c-5.61-2.06-6.26-4.94-6.26-6.92c0-1.99.65-4.86 6.26-6.92c3.88-1.42 9.32-2.14 16.15-2.14m0-3c-11.93 0-25.41 2.19-25.41 12.07s13.47 12.07 25.41 12.07c9.49 0 18-1.38 18-1.38c5.16 0 8.98-5.91 8.98-11.03s-3.82-10.34-8.98-10.34c0-.01-8.52-1.39-18-1.39z" fill="#EDA600"></path>
    <radialGradient id="IconifyId17ecdb2904d178eab21184" cx="2601.3" cy="-320.21" r="20.446" gradientTransform="matrix(-1.3069 -.00626 .00452 -.6804 3502.3 -88.992)" gradientUnits="userSpaceOnUse">
      <stop stop-color="#FFCA28" offset=".599"></stop>
      <stop stop-color="#FFB300" offset="1"></stop>
    </radialGradient>
    <path d="M100.86 122.19c-4.21 0-25.54-.33-32-6.8c-1.13-1.13-1.67-2.35-1.67-3.73c.02-5.25 9.01-8.26 24.66-8.26c5.58 0 9.9.4 9.95.4c.04 0 .09.01.13.01c2.34.01 4.55.96 6.2 2.69c1.67 1.74 2.58 4.06 2.58 6.52c-.02 5.05-3.97 9.15-8.81 9.15c-.07.02-.42.02-1.04.02z" fill="url(#IconifyId17ecdb2904d178eab21184)"></path>
    <path d="M91.86 104.91c5.49 0 9.76.39 9.8.4c.09.01.18.01.27.01c1.93.01 3.75.8 5.12 2.23c1.4 1.46 2.17 3.41 2.16 5.48c-.01 4.22-3.29 7.66-7.34 7.66H101.8c-.02 0-.36.01-.95.01c-18.15 0-28.01-3.43-30.94-6.36c-1.11-1.11-1.23-2.05-1.23-2.66c.03-4.18 8.9-6.77 23.18-6.77m0-3c-10.72 0-26.14 1.44-26.16 9.75c-.04 11.46 29.3 12.03 35.16 12.03c.65 0 1.01-.01 1.01-.01h.03c5.68 0 10.29-4.76 10.31-10.65c.02-5.9-4.58-10.7-10.27-10.72c0 .01-4.37-.4-10.08-.4z" fill="#EDA600"></path>
    <radialGradient id="IconifyId17ecdb2904d178eab21185" cx="2578.2" cy="-485.68" r="18.611" gradientTransform="matrix(-1.6358 -.00188 .0028 -.6804 4323.8 -229.31)" gradientUnits="userSpaceOnUse">
      <stop stop-color="#FFCA28" offset=".599"></stop>
      <stop stop-color="#FFB300" offset="1"></stop>
    </radialGradient>
    <path d="M97.12 106.32c-8.99 0-29.89-1.02-29.89-10.47c0-7.94 15.07-9.12 24.06-9.12c7.95 0 14.8.88 14.87.89c.06.01.13.01.19.01c4.17 0 9.03 2.06 9.03 7.87c0 5.5-4.3 10.5-9.03 10.5h-.12c-.04.01-3.89.32-9.11.32z" fill="url(#IconifyId17ecdb2904d178eab21185)"></path>
    <path d="M91.29 85.24v3c7.83 0 14.61.87 14.67.88c.13.02.26.02.39.02c3.64 0 7.53 1.67 7.53 6.37c0 4.63-3.66 9-7.53 9c-.08 0-.16 0-.25.01c-.04 0-3.83.31-8.99.31c-5.45 0-13.24-.35-19.41-1.99c-5.95-1.59-8.97-3.94-8.97-6.97c0-.93 0-3.76 6.34-5.75c3.95-1.24 9.4-1.87 16.21-1.87l.01-3.01m0 0c-11.56 0-25.56 1.82-25.56 10.62c0 10.37 19.4 11.97 31.39 11.97c5.36 0 9.23-.32 9.23-.32c5.64 0 10.53-5.83 10.53-12s-4.89-9.37-10.53-9.37c0 0-6.93-.9-15.06-.9z" fill="#EDA600"></path>
    <path fill="#EDA600" d="M27.79 114.9L23 96l-2 17z"></path>
  </symbol>
  <symbol xmlns="http://www.w3.org/2000/svg" fill="none" id="wow" viewBox="0 0 16 16">
    <g clip-path="url(#a)">
      <path fill="url(#b)" d="M16 8A8 8 0 1 1-.001 8 8 8 0 0 1 16 8"></path>
      <path fill="url(#c)" d="M5.643 10.888C5.485 12.733 6.37 14 8 14c1.63 0 2.515-1.267 2.357-3.112C10.2 9.042 9.242 8 8 8c-1.242 0-2.2 1.042-2.357 2.888Z"></path>
      <path fill="url(#d)" d="M3.5 5.5c0-.828.559-1.5 1.25-1.5S6 4.672 6 5.5C6 6.329 5.441 7 4.75 7S3.5 6.329 3.5 5.5Zm6.5 0c0-.828.56-1.5 1.25-1.5.691 0 1.25.672 1.25 1.5 0 .829-.559 1.5-1.25 1.5C10.56 7 10 6.329 10 5.5Z"></path>
      <path fill="#000" d="M3.5 5.5c0-.828.559-1.5 1.25-1.5S6 4.672 6 5.5C6 6.329 5.441 7 4.75 7S3.5 6.329 3.5 5.5Zm6.5 0c0-.828.56-1.5 1.25-1.5.691 0 1.25.672 1.25 1.5 0 .829-.559 1.5-1.25 1.5C10.56 7 10 6.329 10 5.5Z" filter="url(#e)"></path>
      <path fill="#4E506A" d="M4.481 4.567c.186.042.29.252.232.47-.057.217-.254.36-.44.317-.186-.042-.29-.252-.232-.47.057-.216.254-.36.44-.317Zm6.659.063c.205.047.321.28.258.52-.064.243-.282.4-.49.354-.205-.046-.322-.28-.258-.52.063-.243.282-.4.49-.354Z"></path>
      <path fill="#000" d="M11.068 1.696c.052-.005.104-.007.157-.007.487 0 .99.204 1.372.562a.368.368 0 0 1-.087.594.344.344 0 0 1-.387-.06c-.275-.26-.656-.4-.992-.37a.8.8 0 0 0-.59.332.346.346 0 0 1-.49.068.368.368 0 0 1-.068-.507 1.49 1.49 0 0 1 1.085-.612Zm-7.665.555c.371-.353.86-.553 1.372-.562a1.49 1.49 0 0 1 1.242.619.369.369 0 0 1-.066.507.347.347 0 0 1-.492-.068.8.8 0 0 0-.59-.331c-.335-.031-.717.11-.992.369a.344.344 0 0 1-.496-.024.368.368 0 0 1 .022-.51Z" filter="url(#f)"></path>
      <path fill="url(#g)" d="M11.068 1.696c.052-.005.104-.007.157-.007.487 0 .99.204 1.372.562a.368.368 0 0 1-.087.594.344.344 0 0 1-.387-.06c-.275-.26-.656-.4-.992-.37a.8.8 0 0 0-.59.332.346.346 0 0 1-.49.068.368.368 0 0 1-.068-.507 1.49 1.49 0 0 1 1.085-.612Zm-7.665.555c.371-.353.86-.553 1.372-.562a1.49 1.49 0 0 1 1.242.619.369.369 0 0 1-.066.507.347.347 0 0 1-.492-.068.8.8 0 0 0-.59-.331c-.335-.031-.717.11-.992.369a.344.344 0 0 1-.496-.024.368.368 0 0 1 .022-.51Z"></path>
    </g>
    <defs>
      <linearGradient id="b" x1="8" x2="8" y1="1.64" y2="16" gradientUnits="userSpaceOnUse">
        <stop stop-color="#FEEA70"></stop>
        <stop offset="1" stop-color="#F69B30"></stop>
      </linearGradient>
      <linearGradient id="c" x1="8" x2="8" y1="8" y2="14" gradientUnits="userSpaceOnUse">
        <stop stop-color="#472315"></stop>
        <stop offset="1" stop-color="#8B3A0E"></stop>
      </linearGradient>
      <linearGradient id="d" x1="8" x2="8" y1="4" y2="7" gradientUnits="userSpaceOnUse">
        <stop stop-color="#191A33"></stop>
        <stop offset=".872" stop-color="#3B426A"></stop>
      </linearGradient>
      <linearGradient id="g" x1="8" x2="8" y1="1.688" y2="2.888" gradientUnits="userSpaceOnUse">
        <stop stop-color="#E78E0D"></stop>
        <stop offset="1" stop-color="#CB6000"></stop>
      </linearGradient>
      <filter id="e" width="9" height="3" x="3.5" y="4" color-interpolation-filters="sRGB" filterUnits="userSpaceOnUse">
        <feFlood flood-opacity="0" result="BackgroundImageFix"></feFlood>
        <feBlend in="SourceGraphic" in2="BackgroundImageFix" result="shape"></feBlend>
        <feColorMatrix in="SourceAlpha" result="hardAlpha" values="0 0 0 0 0 0 0 0 0 0 0 0 0 0 0 0 0 0 127 0"></feColorMatrix>
        <feOffset></feOffset>
        <feGaussianBlur stdDeviation=".5"></feGaussianBlur>
        <feComposite in2="hardAlpha" k2="-1" k3="1" operator="arithmetic"></feComposite>
        <feColorMatrix values="0 0 0 0 0.0980392 0 0 0 0 0.101961 0 0 0 0 0.2 0 0 0 0.819684 0"></feColorMatrix>
        <feBlend in2="shape" result="effect1_innerShadow"></feBlend>
      </filter>
      <filter id="f" width="15.422" height="7.199" x=".289" y="-.312" color-interpolation-filters="sRGB" filterUnits="userSpaceOnUse">
        <feFlood flood-opacity="0" result="BackgroundImageFix"></feFlood>
        <feColorMatrix in="SourceAlpha" values="0 0 0 0 0 0 0 0 0 0 0 0 0 0 0 0 0 0 127 0"></feColorMatrix>
        <feOffset dy="1"></feOffset>
        <feGaussianBlur stdDeviation="1.5"></feGaussianBlur>
        <feColorMatrix values="0 0 0 0 0.803922 0 0 0 0 0.388235 0 0 0 0 0.00392157 0 0 0 0.145679 0"></feColorMatrix>
        <feBlend in2="BackgroundImageFix" result="effect1_dropShadow"></feBlend>
        <feBlend in="SourceGraphic" in2="effect1_dropShadow" result="shape"></feBlend>
      </filter>
      <clipPath id="a">
        <path fill="#fff" d="M0 0h16v16H0z"></path>
      </clipPath>
    </defs>
  </symbol>
</svg>